<?xml version="1.0" encoding="UTF-8"?>
<svg version="1.1" xmlns="http://www.w3.org/2000/svg" width="1024" height="1024">
<path d="M0 0 C337.92 0 675.84 0 1024 0 C1024 337.92 1024 675.84 1024 1024 C686.08 1024 348.16 1024 0 1024 C0 686.08 0 348.16 0 0 Z " fill="#0A0A0B" transform="translate(0,0)"/>
<path d="M0 0 C1.06699804 -0.00779995 2.13399608 -0.01559991 3.23332739 -0.02363622 C6.79706018 -0.04352803 10.35972181 -0.02780154 13.92346191 -0.01205444 C16.48306399 -0.01883175 19.04266118 -0.02773551 21.60224915 -0.03860474 C27.82571028 -0.05902574 34.04877689 -0.05605294 40.27224314 -0.04154153 C45.33160094 -0.03023443 50.39087427 -0.02872472 55.45024109 -0.03416061 C56.17121667 -0.03492678 56.89219225 -0.03569294 57.63501558 -0.03648233 C59.09981448 -0.03808101 60.56461336 -0.03970207 62.02941221 -0.04134528 C75.75425859 -0.0555918 89.47893779 -0.03922737 103.20375675 -0.01234345 C114.97189972 0.00999439 126.73979605 0.00611395 138.50793457 -0.01693726 C152.18475798 -0.04371474 165.861435 -0.0542186 179.53828096 -0.03887594 C180.99759195 -0.03728325 182.45690296 -0.03571139 183.91621399 -0.03416061 C184.63416117 -0.03338924 185.35210835 -0.03261786 186.09181151 -0.03182311 C191.14316796 -0.02751193 196.19443129 -0.03478004 201.24577332 -0.04655838 C208.04868039 -0.0620727 214.85105059 -0.05097537 221.65393639 -0.0220871 C224.1500388 -0.01547792 226.64618043 -0.01737097 229.14226723 -0.02840042 C232.5508581 -0.04207289 235.95795903 -0.02491674 239.36645508 0 C240.35323289 -0.01115361 241.34001071 -0.02230722 242.35669088 -0.03379881 C249.96659297 0.07403395 254.7069844 2.40273768 260.24182129 7.54898071 C260.69686035 8.11359009 261.15189941 8.67819946 261.62072754 9.25991821 C262.09381348 9.82968384 262.56689941 10.39944946 263.05432129 10.98648071 C265.63737644 14.75827751 265.33152471 18.6923842 265.33039856 23.06559753 C265.33407525 23.82881299 265.33775194 24.59202845 265.34154004 25.37837166 C265.35258039 27.94379303 265.35642136 30.5091739 265.36022949 33.07461548 C265.36649402 34.91102731 265.37314081 36.74743787 265.38014221 38.58384705 C265.40119109 44.62299719 265.41154722 50.66214761 265.42150879 56.70132446 C265.42555641 58.78101045 265.42967334 60.86069629 265.43385887 62.940382 C265.45291448 72.71355399 265.46714322 82.48671841 265.47547084 92.2599054 C265.48523693 103.53487508 265.51153854 114.80964812 265.55197173 126.08454853 C265.58215958 134.80231693 265.59694236 143.52002906 265.60025185 152.2378487 C265.60259982 157.44281449 265.61152706 162.6475703 265.63671303 167.85247993 C265.66004454 172.75350544 265.66420653 177.65418346 265.65395164 182.55525017 C265.65345736 184.34906548 265.65974586 186.14289818 265.67350769 187.93666077 C265.75317549 198.94126046 265.69698922 208.77325606 258.05822754 217.44741821 C247.29448237 226.93885986 236.50714438 226.30439756 222.86291504 226.12319946 C220.79213315 226.11386159 218.72134014 226.10675009 216.65054321 226.10176086 C211.22848439 226.08276783 205.80710665 226.03373372 200.38531494 225.97824097 C194.84148367 225.92688189 189.29754119 225.90421136 183.75354004 225.87905884 C172.89647172 225.82560724 162.0399065 225.74038834 151.18322754 225.63491821 C150.64452292 215.73455447 150.23890326 205.83779365 149.99154758 195.92563534 C149.87265147 191.31923227 149.7123416 186.72300492 149.44812012 182.12246704 C147.63448553 149.71204338 147.63448553 149.71204338 154.86794662 141.61980534 C157.84615909 138.68108974 161.02632833 136.05070871 164.29340744 133.44241524 C170.53797853 128.39340208 175.03041681 123.98741561 176.14001465 115.69619751 C176.93880691 107.57408752 176.50756555 99.4149562 175.9956665 91.28842163 C175.82704812 88.21333966 175.76330262 85.13988245 175.70343304 82.06104088 C175.62991039 78.36313387 175.51355979 74.66712848 175.38244629 70.97085571 C175.35825811 70.27714245 175.33406994 69.58342918 175.30914879 68.86869431 C175.22963692 66.90738944 175.11668938 64.94752674 175.00231934 62.98794556 C174.94182907 61.87817352 174.88133881 60.76840149 174.8190155 59.625 C173.9248942 55.41998829 171.82786938 52.82586575 168.37072754 50.32241821 C164.80431292 49.20154505 162.95859356 48.96509521 159.18322754 49.63491821 C150.18270934 56.31997706 142.44408783 65.25807052 134.55822754 73.19741821 C133.25507808 74.50559601 131.95169424 75.81354038 130.64807129 77.12124634 C127.49041962 80.28979035 124.33594004 83.46145999 121.18322754 86.63491821 C117.73920967 85.01407168 115.57651236 83.20955577 112.93322754 80.44741821 C110.19829837 77.59770187 107.39488926 74.9264127 104.40197754 72.35366821 C99.26022876 67.90065392 94.56515018 63.03505967 89.83166504 58.15640259 C89.15877441 57.47255493 88.48588379 56.78870728 87.79260254 56.08413696 C86.89493164 55.1612085 86.89493164 55.1612085 85.97912598 54.21963501 C82.28353289 50.95861071 79.11994163 50.19557014 74.15197754 50.30679321 C71.0400615 50.82544589 69.33254885 52.42046596 67.18322754 54.63491821 C65.79393766 57.41349798 65.99393207 59.74483076 65.92687988 62.85366821 C65.89790619 64.16263062 65.8689325 65.47159302 65.83908081 66.82022095 C65.74911317 72.04259316 65.68168799 77.26527033 65.63478661 82.48820496 C65.59911507 86.4481117 65.54604744 90.40597148 65.44934082 94.36489868 C65.35596503 98.19945302 65.30777884 102.03220147 65.29039383 105.86782837 C65.27638791 107.32232988 65.24694846 108.77677541 65.20109177 110.23062134 C64.97455873 117.78648204 65.20315072 123.42038898 70.4395752 129.33413696 C71.98270273 130.80865284 73.56431964 132.24402754 75.18322754 133.63491821 C76.4547316 134.79398682 76.4547316 134.79398682 77.75192261 135.97647095 C79.19699804 137.28606995 80.65879247 138.57756943 82.14025879 139.84585571 C82.81443848 140.43624634 83.48861816 141.02663696 84.18322754 141.63491821 C84.87599792 142.17288025 85.56876831 142.71084229 86.28253174 143.2651062 C88.88794958 146.51357474 88.71645333 149.35575482 88.6373291 153.3409729 C88.63791321 154.11208908 88.63849731 154.88320526 88.63909912 155.6776886 C88.63631701 158.22118474 88.60522045 160.76350235 88.57385254 163.30679321 C88.56639057 165.07226928 88.56069743 166.83775365 88.55670166 168.60324097 C88.54144182 173.24605242 88.50215714 177.88836196 88.45788574 182.53097534 C88.41694051 187.26998098 88.39869225 192.00906786 88.37854004 196.74819946 C88.33566311 206.04399269 88.26740762 215.33941369 88.18322754 224.63491821 C75.93499687 224.72771422 63.68685022 224.79873217 51.43833923 224.8421669 C45.75047361 224.8630164 40.062849 224.89128625 34.37512207 224.93667603 C28.88323608 224.98022725 23.39158152 225.00407516 17.89953613 225.01442719 C15.80721393 225.02180186 13.714904 225.03620289 11.62268066 225.05783844 C8.68555611 225.08699536 5.74938044 225.09086904 2.81213379 225.08901978 C1.95257584 225.10340088 1.09301788 225.11778198 0.20741272 225.13259888 C-6.64326273 225.08611293 -11.61993557 223.11317407 -17.02380371 218.92398071 C-17.81851074 218.10026978 -17.81851074 218.10026978 -18.62927246 217.25991821 C-19.17196777 216.71593384 -19.71466309 216.17194946 -20.27380371 215.61148071 C-24.23865792 210.53245228 -25.25828287 205.9674923 -25.21791077 199.64692688 C-25.22470744 198.86002482 -25.23150411 198.07312276 -25.23850673 197.26237518 C-25.25744464 194.63471156 -25.25504414 192.00751542 -25.25256348 189.37979126 C-25.26154316 187.49204918 -25.27175189 185.6043126 -25.28309631 183.71658325 C-25.30957962 178.59456727 -25.31662909 173.47270168 -25.31854367 168.35062385 C-25.32067732 165.14872474 -25.32708432 161.94686377 -25.33503532 158.74497414 C-25.36278368 147.56934815 -25.37504153 136.39382946 -25.37268066 125.21817017 C-25.37087867 114.80931492 -25.40252968 104.40092629 -25.44991165 93.99218911 C-25.4891704 85.0484548 -25.505231 76.1048728 -25.50331444 67.161053 C-25.50255039 61.82250518 -25.51105291 56.48437208 -25.54284859 51.14591026 C-25.57194731 46.12321518 -25.57209278 41.1013297 -25.55029869 36.07860565 C-25.5471679 34.23921587 -25.55421019 32.39977519 -25.57238007 30.56047249 C-25.72641774 13.8823062 -25.72641774 13.8823062 -20.884902 7.43652058 C-14.10389368 1.52940481 -8.97558247 -0.10145154 0 0 Z " fill="#FDFDFD" transform="translate(391.8167724609375,476.3650817871094)"/>
<path d="M0 0 C16.34789538 13.96366301 27.2452524 32.93357304 32.96875 53.5078125 C33.2884375 54.61769531 33.608125 55.72757812 33.9375 56.87109375 C35.98697894 65.24928777 36.30349636 73.47167386 36.40625 82.0703125 C36.42856689 83.20122314 36.45088379 84.33213379 36.47387695 85.49731445 C36.45705543 91.57625074 36.42778617 95.93006655 31.96875 100.5078125 C27.03411641 103.56865695 23.12781978 103.9631579 17.5 103.94140625 C16.3021991 103.94926903 16.3021991 103.94926903 15.0802002 103.95729065 C13.39934446 103.96368677 11.71844382 103.96240519 10.03759766 103.95385742 C7.4760733 103.94533686 4.91677384 103.9741564 2.35546875 104.00585938 C0.7161465 104.00747146 -0.92317968 104.00689371 -2.5625 104.00390625 C-3.32203979 104.01514023 -4.08157959 104.02637421 -4.86413574 104.03794861 C-10.02837807 103.97075171 -12.90756562 102.86176811 -17.03125 99.5078125 C-21.88021034 94.22244573 -21.53727557 89.17691203 -21.53125 82.3828125 C-21.87035607 67.17777216 -25.87040932 54.60386438 -36.296875 43.15625 C-49.00199433 31.08066361 -64.3637949 26.95141554 -81.41015625 27.23046875 C-96.32936352 27.84585161 -109.03289165 35.83729561 -119.03125 46.5078125 C-128.70346396 58.99107143 -131.20336632 71.77969211 -131.37304688 87.1640625 C-131.55252022 92.70686732 -132.14740178 96.24013338 -136.03125 100.5078125 C-141.07930559 103.69881631 -145.19325903 103.94977113 -150.97265625 103.90625 C-151.81795395 103.90912018 -152.66325165 103.91199036 -153.53416443 103.91494751 C-155.31339186 103.91698092 -157.09264202 103.9115018 -158.87182617 103.89892578 C-161.58888835 103.88284128 -164.30446768 103.89880888 -167.02148438 103.91796875 C-168.7552116 103.91598658 -170.48893791 103.91214345 -172.22265625 103.90625 C-173.03110489 103.91232269 -173.83955353 103.91839539 -174.67250061 103.9246521 C-179.27634017 103.86744792 -182.29122888 103.48158107 -186.03125 100.5078125 C-189.38585964 95.59648859 -189.46993622 91.23862596 -189.34375 85.5078125 C-189.3331958 84.66911621 -189.3226416 83.83041992 -189.31176758 82.96630859 C-189.15868551 75.7028762 -188.3976112 68.64704977 -187.03125 61.5078125 C-186.721875 59.86039063 -186.721875 59.86039063 -186.40625 58.1796875 C-184.80904336 50.52035567 -182.31501156 43.59775223 -179.03125 36.5078125 C-178.5775 35.5075 -178.12375 34.5071875 -177.65625 33.4765625 C-164.86917562 6.51251435 -139.99367924 -14.16797584 -112.09521484 -24.1875 C-108.12172019 -25.50263413 -104.10422876 -26.53797546 -100.03125 -27.4921875 C-99.18175781 -27.71648437 -98.33226562 -27.94078125 -97.45703125 -28.171875 C-62.64489579 -36.15079459 -26.52556887 -21.80839296 0 0 Z " fill="#FBFBFB" transform="translate(588.03125,342.4921875)"/>
</svg>
